<?xml version="1.0" encoding="UTF-8"?>
<svg id="Layer_1" data-name="Layer 1" xmlns="http://www.w3.org/2000/svg" viewBox="0 0 191.87 102.2">
  <path fill="#5dbd77" d="M0,51.48c24.68,9.4,49.37,18.8,74.05,28.2,39.27-23.21,78.55-46.42,117.82-69.62-2.65-2.55-6.75-5.83-12.4-7.93-20.23-7.49-42.91,6.66-53.25,13.12-34.34,21.43-36.06,29.76-52.61,30.27-17.09.52-22.42-10.5-41.12-8.97-14.09,1.15-25.15,8.57-32.49,14.93Z"/>
  <path fill="#5dbd77" d="M74.04,79.51c5.97,5.98,11.94,11.96,17.91,17.95-2.8,1.6-9.2,4.75-17.91,4.75s-15.11-3.15-17.91-4.75c5.97-5.98,11.94-11.96,17.91-17.95Z"/>
</svg>